# xmcd
# Track frame offsets:
# 150
# 17273
# 33519
# 50815
# 67968
# 87035
# 100169
# 117126
# 135181
# 152746
# 170275
# 185236
# 205546
# 221227
# 239438
# 251976
# 266193
# 281814
# 300794
# 323663
#
# Disc length: 4511 seconds
# Revision: 2
# Processed by: cddbd v1.5.2PL0 Copyright (c) Steve Scherf et al.
# Submitted via: VisiTrax 2.9.10.228 - For more info visit www.synapsa.com
#
DISCID=15119d14
DTITLE=Various Artist - CDX volume 402 aug. 2006
DYEAR=2006
DGENRE=Country
TTITLE0=Sarah Buxton - Innocence
TTITLE1=Alan Jackson - Like Red On A Rose
TTITLE2=Craig Morgan - Little Bit Of Life
TTITLE3=Katrina Elam - Love Is
TTITLE4=LeAnn Rimes - Some People
TTITLE5=Vince Gill - The Reason Why
TTITLE6=Bob Seger - Wait For Me
TTITLE7=Kenny Chesney - You Save Me
TTITLE8=Nick Ashton - Botox Queen
TTITLE9=Kate Russell - Talk Is Cheap
TTITLE10=Jeff Griffith - Drinkin' Thing
TTITLE11=Karen Taylor-Good - On Angel's Wings
TTITLE12=Cody McCarver - Red Flag
TTITLE13=DeLana Stevens - Say Hello To Heaven
TTITLE14=Zachary Hunter - Two Lonesome Hearts
TTITLE15=Carrie Rodriguez - Never Gonna Be Your Bride
TTITLE16=Travis Rush - Come And Get It
TTITLE17=Darshan Hawkes - Fill This Place
TTITLE18=Mark McGuinn - More Beautiful Today
TTITLE19=Jennifer LeMoss - Burn Your Memory Down
EXTD=
EXTT0=
EXTT1=
EXTT2=
EXTT3=
EXTT4=
EXTT5=
EXTT6=
EXTT7=
EXTT8=
EXTT9=
EXTT10=
EXTT11=
EXTT12=
EXTT13=
EXTT14=
EXTT15=
EXTT16=
EXTT17=
EXTT18=
EXTT19=
PLAYORDER=
